<?xml version="1.0" encoding="utf-8"?><svg xmlns="http://www.w3.org/2000/svg" xmlns:xlink="http://www.w3.org/1999/xlink"><symbol viewBox="0 0 29 28" id="settings" xmlns="http://www.w3.org/2000/svg"><path d="M14.77 14.171a.766.766 0 0 1-.941.542.766.766 0 0 1-.542-.941.766.766 0 0 1 .941-.542.757.757 0 0 1 .542.941zm9.837 2.538c-.257.998-.627 1.939-1.17 2.823l1.54 2.138c.286.4.229.941-.114 1.283l-.912.941-.912.941a.996.996 0 0 1-1.283.114l-2.167-1.54c-.856.514-1.797.884-2.738 1.14l-.427 2.624a1.01 1.01 0 0 1-.998.827h-2.624a1.01 1.01 0 0 1-.997-.827l-.428-2.595c-.97-.256-1.94-.627-2.823-1.14l-2.167 1.54a.996.996 0 0 1-1.283-.115l-.941-.912-.941-.912a.996.996 0 0 1-.114-1.283l1.511-2.139a10.47 10.47 0 0 1-1.197-2.794l-2.624-.428A1.07 1.07 0 0 1 0 15.37v-2.624c0-.484.342-.912.827-.997l2.595-.4c.256-.97.627-1.939 1.14-2.823l-1.54-2.167a.996.996 0 0 1 .114-1.283l.913-.94.912-.942a.996.996 0 0 1 1.283-.114l2.139 1.512a9.361 9.361 0 0 1 2.88-1.198l.485-2.566A1.01 1.01 0 0 1 12.745 0h2.624c.484 0 .912.342.998.827l.456 2.623c.998.257 1.939.627 2.823 1.17l2.138-1.54a1.03 1.03 0 0 1 1.283.085l.941.912.941.913c.342.342.4.884.114 1.283L23.438 8.44c.513.884.912 1.825 1.169 2.823l2.623.427c.485.086.827.514.827.998v2.624c0 .484-.342.912-.827.998l-2.623.399zm-14.884-.143a.703.703 0 0 0-.97-.256.703.703 0 0 0-.256.969c.2.342.627.456.97.257a.703.703 0 0 0 .256-.97zm1.853 1.797a.704.704 0 0 0-.97.256.708.708 0 0 0 0 .713.56.56 0 0 0 .258.257c.342.2.77.057.969-.285.2-.286.085-.742-.257-.941zm2.481-9.296c.998 0 1.939.285 2.737.827l1.283-.627c.114-.057.257-.114.371-.143a6.591 6.591 0 0 0-4.42-1.71c-3.62 0-6.558 2.936-6.558 6.586a.827.827 0 0 0 1.654 0 4.916 4.916 0 0 1 4.933-4.933zm.77 10.664c0-.399-.314-.713-.713-.713-.4 0-.713.314-.713.713 0 .143.029.257.086.342.114.2.37.343.627.343.4.028.713-.286.713-.685zm4.562-8.07c.314-.199.4-.626.2-.94a.737.737 0 0 0-.913-.285l-3.963 1.939a1.734 1.734 0 0 0-1.54.114 1.728 1.728 0 0 0-.599 2.395 1.728 1.728 0 0 0 2.396.599c.484-.285.77-.77.855-1.312l3.564-2.51zm-1.796 6.93a.704.704 0 0 0-.97-.257.704.704 0 0 0-.256.97c.2.342.627.456.97.256.341-.2.455-.656.256-.97zm1.796-2.396a.703.703 0 0 0-.97.257.708.708 0 0 0 0 .713.56.56 0 0 0 .257.257c.342.2.77.085.97-.257.228-.342.085-.77-.257-.97zm1.112-2.252c0-.4-.314-.713-.713-.713-.399 0-.713.314-.713.713 0 .143.029.257.086.342.114.2.37.342.627.342.4.029.713-.285.713-.684z"/></symbol><symbol viewBox="0 0 30 24" id="speaker" xmlns="http://www.w3.org/2000/svg"><path d="M15.009 21.352a1.361 1.361 0 0 1-2.232 1.048L5.329 16.23H1.362C.61 16.229 0 15.619 0 14.867V9.439c0-.753.61-1.363 1.362-1.363H5.33l7.448-6.171a1.362 1.362 0 1 1 2.232 1.05V21.35zm5.236-2.129a1.36 1.36 0 0 1-1.061-.395L19 18.645a1.361 1.361 0 0 1-.131-1.775 7.862 7.862 0 0 0 1.558-4.717c0-1.84-.61-3.565-1.768-4.99-.44-.542-.4-1.33.094-1.822l.182-.183a1.364 1.364 0 0 1 2.018.101 10.774 10.774 0 0 1 2.453 6.895c0 2.37-.75 4.628-2.169 6.526-.237.316-.599.515-.993.543zm5.632 4.21a1.364 1.364 0 0 1-2.005.085l-.178-.18c-.5-.5-.534-1.298-.08-1.84a14.543 14.543 0 0 0 3.408-9.345c0-3.55-1.296-6.968-3.648-9.624a1.363 1.363 0 0 1 .055-1.865l.178-.179c.265-.266.61-.413 1.005-.4.375.01.73.176.979.457A17.468 17.468 0 0 1 30 12.153c0 4.124-1.464 8.13-4.123 11.28z"/></symbol></svg>