<svg width="29" height="28" viewBox="0 0 29 28" fill="none" xmlns="http://www.w3.org/2000/svg">
<path d="M14.7699 14.1711C14.6558 14.5703 14.2566 14.8269 13.8289 14.7128C13.4297 14.5988 13.1731 14.1996 13.2872 13.7719C13.4012 13.3727 13.8004 13.1161 14.2281 13.2301C14.6558 13.3442 14.8839 13.7719 14.7699 14.1711ZM24.6069 16.7088C24.3503 17.7067 23.9796 18.6477 23.4379 19.5316L24.9776 21.6701C25.2627 22.0692 25.2057 22.611 24.8635 22.9532L23.9511 23.8941L23.0387 24.835C22.6965 25.1772 22.1548 25.2342 21.7556 24.9491L19.5886 23.4094C18.7332 23.9226 17.7923 24.2933 16.8513 24.5499L16.4236 27.1731C16.3381 27.6578 15.9104 28 15.4257 28H14.1141H12.8024C12.3177 28 11.89 27.6578 11.8045 27.1731L11.3768 24.5784C10.4073 24.3218 9.43788 23.9511 8.55397 23.4379L6.38697 24.9776C5.98778 25.2627 5.44603 25.2057 5.10387 24.8635L4.16293 23.9511L3.222 23.0387C2.87984 22.6965 2.82281 22.1548 3.10794 21.7556L4.61915 19.6171C4.07739 18.7332 3.67821 17.7923 3.42159 16.8228L0.798371 16.3951C0.342159 16.2811 0 15.8534 0 15.3686V14.057V12.7454C0 12.2607 0.342159 11.833 0.826884 11.7475L3.42159 11.3483C3.67821 10.3788 4.04888 9.40937 4.56212 8.52546L3.0224 6.35845C2.73727 5.95927 2.7943 5.41752 3.13646 5.07536L4.04888 4.13442L4.9613 3.19348C5.30346 2.85132 5.84521 2.7943 6.2444 3.07943L8.38289 4.59063C9.29532 4.02037 10.2648 3.62118 11.2627 3.39308L11.7475 0.826884C11.833 0.342159 12.2607 0 12.7454 0H14.057H15.3686C15.8534 0 16.2811 0.342159 16.3666 0.826884L16.8228 3.4501C17.8208 3.70672 18.7617 4.07739 19.6456 4.61914L21.7841 3.07943C22.1833 2.7943 22.7251 2.85132 23.0672 3.16497L24.0081 4.07739L24.9491 4.98982C25.2912 5.33198 25.3483 5.87373 25.0631 6.27291L23.4379 8.43992C23.9511 9.32383 24.3503 10.2648 24.6069 11.2627L27.2301 11.6904C27.7149 11.776 28.057 12.2037 28.057 12.6884V14V15.3116C28.057 15.7963 27.7149 16.224 27.2301 16.3096L24.6069 16.7088ZM9.72302 16.5662C9.52342 16.224 9.09572 16.11 8.75356 16.3096C8.41141 16.5092 8.29735 16.9369 8.49695 17.279C8.69654 17.6212 9.12424 17.7352 9.4664 17.5356C9.80855 17.336 9.92261 16.9083 9.72302 16.5662ZM11.5764 18.3625C11.2342 18.1629 10.8065 18.277 10.6069 18.6191C10.4644 18.8472 10.4929 19.1324 10.6069 19.332C10.664 19.446 10.7495 19.5316 10.8635 19.5886C11.2057 19.7882 11.6334 19.6456 11.833 19.3035C12.0326 19.0183 11.9185 18.5621 11.5764 18.3625ZM14.057 9.06721C15.055 9.06721 15.9959 9.35234 16.7943 9.89409L18.0774 9.2668C18.1914 9.20978 18.334 9.15275 18.4481 9.12424C17.2505 8.04073 15.6823 7.41344 14.0285 7.41344C10.4073 7.41344 7.47047 10.3503 7.47047 14C7.47047 14.4562 7.84114 14.8269 8.29735 14.8269C8.75356 14.8269 9.12424 14.4562 9.12424 14C9.12424 11.2627 11.3198 9.06721 14.057 9.06721ZM14.8269 19.7312C14.8269 19.332 14.5132 19.0183 14.1141 19.0183C13.7149 19.0183 13.4012 19.332 13.4012 19.7312C13.4012 19.8737 13.4297 19.9878 13.4868 20.0733C13.6008 20.2729 13.8574 20.4155 14.1141 20.4155C14.5132 20.444 14.8269 20.1303 14.8269 19.7312ZM19.389 11.6619C19.7027 11.4623 19.7882 11.0346 19.5886 10.721C19.389 10.4073 18.9898 10.2933 18.6762 10.4358L14.7128 12.3747C14.2281 12.1752 13.6578 12.2037 13.1731 12.4888C12.3462 12.9735 12.0611 14.057 12.5743 14.8839C13.0591 15.7108 14.1426 15.9959 14.9695 15.4827C15.4542 15.1976 15.7393 14.7128 15.8248 14.1711L19.389 11.6619ZM17.5927 18.5906C17.3931 18.2485 16.9654 18.1344 16.6232 18.334C16.2811 18.5336 16.167 18.9613 16.3666 19.3035C16.5662 19.6456 16.9939 19.7597 17.3361 19.5601C17.6782 19.3605 17.7923 18.9043 17.5927 18.5906ZM19.389 16.1955C19.0468 15.9959 18.6191 16.11 18.4196 16.4521C18.277 16.6802 18.3055 16.9654 18.4196 17.165C18.4766 17.279 18.5621 17.3646 18.6762 17.4216C19.0183 17.6212 19.446 17.5071 19.6456 17.165C19.8737 16.8228 19.7312 16.3951 19.389 16.1955ZM20.501 13.943C20.501 13.5438 20.1874 13.2301 19.7882 13.2301C19.389 13.2301 19.0754 13.5438 19.0754 13.943C19.0754 14.0855 19.1039 14.1996 19.1609 14.2851C19.275 14.4847 19.5316 14.6273 19.7882 14.6273C20.1874 14.6558 20.501 14.3422 20.501 13.943Z" fill="black"/>
</svg>
